<svg width="223" height="223" viewBox="0 0 223 223" fill="none" xmlns="http://www.w3.org/2000/svg">
<path d="M0 18C0 8.05888 8.05888 0 18 0H205C214.941 0 223 8.05888 223 18V205C223 214.941 214.941 223 205 223H18C8.05888 223 0 214.941 0 205V18Z" fill="white"/>
<path fill-rule="evenodd" clip-rule="evenodd" d="M205 1H18C8.61116 1 1 8.61116 1 18V205C1 214.389 8.61116 222 18 222H205C214.389 222 222 214.389 222 205V18C222 8.61116 214.389 1 205 1ZM18 0C8.05888 0 0 8.05888 0 18V205C0 214.941 8.05888 223 18 223H205C214.941 223 223 214.941 223 205V18C223 8.05888 214.941 0 205 0H18Z" fill="#333333"/>
<path d="M9 20.7816C9 14.2748 14.2748 9 20.7816 9H202.218C208.725 9 214 14.2748 214 20.7816V202.218C214 208.725 208.725 214 202.218 214H20.7816C14.2748 214 9 208.725 9 202.218V20.7816Z" fill="#034DA2"/>
<path fill-rule="evenodd" clip-rule="evenodd" d="M105.474 69.5659C105.842 67.3108 104.312 65.1842 102.057 64.8161L85.3382 62.0874C82.31 61.5932 79.3577 63.3196 78.3034 66.201L65.4821 101.243C63.2297 100.712 60.8807 100.431 58.4662 100.431C41.6402 100.431 28 114.071 28 130.897C28 147.723 41.6402 161.364 58.4662 161.364C75.2922 161.364 88.9324 147.723 88.9324 130.897C88.9324 119.416 82.582 109.419 73.2021 104.226L78.5776 89.5338C103.142 92.0502 123.531 103.295 138.818 114.554C135.81 119.276 134.068 124.883 134.068 130.897C134.068 147.723 147.708 161.364 164.534 161.364C181.36 161.364 195 147.723 195 130.897C195 114.071 181.36 100.431 164.534 100.431C156.708 100.431 149.572 103.382 144.176 108.231C142.669 107.115 141.112 105.996 139.506 104.884L154.397 81.1117H161.245C162.996 81.1117 164.415 79.2593 164.415 76.9743C164.415 74.6893 162.996 72.8369 161.245 72.8369H140.503C138.752 72.8369 137.333 74.6893 137.333 76.9743C137.333 79.2593 138.752 81.1117 140.503 81.1117H144.638L132.592 100.341C118.545 91.609 101.368 83.9589 81.5039 81.5358L85.5401 70.5046L100.724 72.9829C102.98 73.3509 105.106 71.8211 105.474 69.5659ZM150.866 113.413C154.633 110.464 159.378 108.706 164.534 108.706C176.79 108.706 186.725 118.641 186.725 130.897C186.725 143.153 176.79 153.089 164.534 153.089C152.278 153.089 142.342 143.153 142.342 130.897C142.342 126.788 143.46 122.939 145.407 119.638C151.559 124.599 156.657 129.297 160.618 132.946C161.135 133.423 161.633 133.882 162.112 134.321C163.795 135.867 166.412 135.755 167.958 134.072C169.503 132.389 169.391 129.771 167.708 128.226C167.233 127.789 166.737 127.333 166.221 126.857L166.216 126.853C162.258 123.205 157.113 118.464 150.866 113.413ZM62.636 133.104L70.3107 112.128C76.5286 116.06 80.6576 122.996 80.6576 130.897C80.6576 143.153 70.7222 153.089 58.4662 153.089C46.2102 153.089 36.2747 143.153 36.2747 130.897C36.2747 118.641 46.2102 108.706 58.4662 108.706C59.8824 108.706 61.2677 108.839 62.6102 109.092L54.865 130.26C54.0798 132.406 55.183 134.782 57.3288 135.568C59.4747 136.353 61.8508 135.25 62.636 133.104Z" fill="white"/>
</svg>
